<?xml version="1.0" encoding="UTF-8" standalone="no"?>
<!DOCTYPE svg PUBLIC "-//W3C//DTD SVG 1.1//EN"
 "http://www.w3.org/Graphics/SVG/1.1/DTD/svg11.dtd">
<!-- Generated by graphviz version 2.40.1 (20161225.0304)
 -->
<!-- Title: state transitions Pages: 1 -->
<svg width="71pt" height="211pt"
 viewBox="0.00 0.00 71.00 211.00" xmlns="http://www.w3.org/2000/svg" xmlns:xlink="http://www.w3.org/1999/xlink">
<g id="graph0" class="graph" transform="scale(1 1) rotate(0) translate(4 207)">
<title>state transitions</title>
<polygon fill="#ffffff" stroke="transparent" points="-4,4 -4,-207 67,-207 67,4 -4,4"/>
<!-- initial -->
<g id="node1" class="node">
<title>initial</title>
<ellipse fill="#000000" stroke="#000000" stroke-width="2" cx="31.5" cy="-197.5" rx="5.5" ry="5.5"/>
</g>
<!-- backlog -->
<g id="node2" class="node">
<title>backlog</title>
<polygon fill="transparent" stroke="transparent" stroke-width="2" points="63,-164 0,-164 0,-128 63,-128 63,-164"/>
<text text-anchor="start" x="11.327" y="-142.2" font-family="Helvetica,sans-Serif" font-size="12.00" fill="#000000">backlog</text>
<path fill="none" stroke="#000000" stroke-width="2" d="M12.3333,-129C12.3333,-129 50.6667,-129 50.6667,-129 56.3333,-129 62,-134.6667 62,-140.3333 62,-140.3333 62,-151.6667 62,-151.6667 62,-157.3333 56.3333,-163 50.6667,-163 50.6667,-163 12.3333,-163 12.3333,-163 6.6667,-163 1,-157.3333 1,-151.6667 1,-151.6667 1,-140.3333 1,-140.3333 1,-134.6667 6.6667,-129 12.3333,-129"/>
</g>
<!-- initial&#45;&gt;backlog -->
<g id="edge1" class="edge">
<title>initial&#45;&gt;backlog</title>
<path fill="none" stroke="#000000" d="M31.5,-191.9886C31.5,-187.6293 31.5,-181.1793 31.5,-174.4801"/>
<polygon fill="#000000" stroke="#000000" points="35.0001,-174.0122 31.5,-164.0122 28.0001,-174.0122 35.0001,-174.0122"/>
<text text-anchor="middle" x="32.8895" y="-175" font-family="Helvetica,sans-Serif" font-size="10.00" fill="#000000"> </text>
</g>
<!-- doing -->
<g id="node3" class="node">
<title>doing</title>
<polygon fill="transparent" stroke="transparent" stroke-width="2" points="59.5,-100 3.5,-100 3.5,-64 59.5,-64 59.5,-100"/>
<text text-anchor="start" x="16.827" y="-78.2" font-family="Helvetica,sans-Serif" font-size="12.00" fill="#000000">doing</text>
<path fill="none" stroke="#000000" stroke-width="2" d="M15.8333,-65C15.8333,-65 47.1667,-65 47.1667,-65 52.8333,-65 58.5,-70.6667 58.5,-76.3333 58.5,-76.3333 58.5,-87.6667 58.5,-87.6667 58.5,-93.3333 52.8333,-99 47.1667,-99 47.1667,-99 15.8333,-99 15.8333,-99 10.1667,-99 4.5,-93.3333 4.5,-87.6667 4.5,-87.6667 4.5,-76.3333 4.5,-76.3333 4.5,-70.6667 10.1667,-65 15.8333,-65"/>
</g>
<!-- backlog&#45;&gt;doing -->
<g id="edge2" class="edge">
<title>backlog&#45;&gt;doing</title>
<path fill="none" stroke="#000000" d="M31.5,-127.8314C31.5,-122.4728 31.5,-116.4735 31.5,-110.6262"/>
<polygon fill="#000000" stroke="#000000" points="35.0001,-110.4363 31.5,-100.4363 28.0001,-110.4363 35.0001,-110.4363"/>
<text text-anchor="middle" x="32.8895" y="-111" font-family="Helvetica,sans-Serif" font-size="10.00" fill="#000000"> </text>
</g>
<!-- test -->
<g id="node4" class="node">
<title>test</title>
<polygon fill="transparent" stroke="transparent" stroke-width="2" points="59.5,-36 3.5,-36 3.5,0 59.5,0 59.5,-36"/>
<text text-anchor="start" x="21.8298" y="-14.2" font-family="Helvetica,sans-Serif" font-size="12.00" fill="#000000">test</text>
<path fill="none" stroke="#000000" stroke-width="2" d="M15.8333,-1C15.8333,-1 47.1667,-1 47.1667,-1 52.8333,-1 58.5,-6.6667 58.5,-12.3333 58.5,-12.3333 58.5,-23.6667 58.5,-23.6667 58.5,-29.3333 52.8333,-35 47.1667,-35 47.1667,-35 15.8333,-35 15.8333,-35 10.1667,-35 4.5,-29.3333 4.5,-23.6667 4.5,-23.6667 4.5,-12.3333 4.5,-12.3333 4.5,-6.6667 10.1667,-1 15.8333,-1"/>
</g>
<!-- doing&#45;&gt;test -->
<g id="edge3" class="edge">
<title>doing&#45;&gt;test</title>
<path fill="none" stroke="#000000" d="M31.5,-63.8314C31.5,-58.4728 31.5,-52.4735 31.5,-46.6262"/>
<polygon fill="#000000" stroke="#000000" points="35.0001,-46.4363 31.5,-36.4363 28.0001,-46.4363 35.0001,-46.4363"/>
<text text-anchor="middle" x="32.8895" y="-47" font-family="Helvetica,sans-Serif" font-size="10.00" fill="#000000"> </text>
</g>
</g>
</svg>
